<mxfile host="Electron" agent="Mozilla/5.0 (Windows NT 10.0; Win64; x64) AppleWebKit/537.36 (KHTML, like Gecko) draw.io/24.7.8 Chrome/128.0.6613.36 Electron/32.0.1 Safari/537.36" version="24.7.8">
  <diagram name="페이지-1" id="_URogMLGxWly54ymHIFh">
    <mxGraphModel dx="712" dy="835" grid="1" gridSize="10" guides="1" tooltips="1" connect="1" arrows="1" fold="1" page="1" pageScale="1" pageWidth="827" pageHeight="1169" math="0" shadow="0">
      <root>
        <mxCell id="0" />
        <mxCell id="1" parent="0" />
        <mxCell id="V_WscMgkgq-Gt-Ru2xho-3" value="" style="edgeStyle=orthogonalEdgeStyle;rounded=0;orthogonalLoop=1;jettySize=auto;html=1;" edge="1" parent="1" source="V_WscMgkgq-Gt-Ru2xho-1" target="V_WscMgkgq-Gt-Ru2xho-2">
          <mxGeometry relative="1" as="geometry" />
        </mxCell>
        <mxCell id="V_WscMgkgq-Gt-Ru2xho-1" value="START" style="strokeWidth=2;html=1;shape=mxgraph.flowchart.terminator;whiteSpace=wrap;" vertex="1" parent="1">
          <mxGeometry x="200" y="120" width="100" height="60" as="geometry" />
        </mxCell>
        <mxCell id="V_WscMgkgq-Gt-Ru2xho-5" value="" style="edgeStyle=orthogonalEdgeStyle;rounded=0;orthogonalLoop=1;jettySize=auto;html=1;" edge="1" parent="1" source="V_WscMgkgq-Gt-Ru2xho-2" target="V_WscMgkgq-Gt-Ru2xho-4">
          <mxGeometry relative="1" as="geometry" />
        </mxCell>
        <mxCell id="V_WscMgkgq-Gt-Ru2xho-2" value="int a = 0;&lt;div&gt;int b = 0;&lt;/div&gt;" style="shape=hexagon;perimeter=hexagonPerimeter2;whiteSpace=wrap;html=1;fixedSize=1;strokeWidth=2;" vertex="1" parent="1">
          <mxGeometry x="190" y="250" width="120" height="80" as="geometry" />
        </mxCell>
        <mxCell id="V_WscMgkgq-Gt-Ru2xho-7" value="" style="edgeStyle=orthogonalEdgeStyle;rounded=0;orthogonalLoop=1;jettySize=auto;html=1;" edge="1" parent="1" source="V_WscMgkgq-Gt-Ru2xho-4" target="V_WscMgkgq-Gt-Ru2xho-6">
          <mxGeometry relative="1" as="geometry" />
        </mxCell>
        <mxCell id="V_WscMgkgq-Gt-Ru2xho-15" value="" style="edgeStyle=orthogonalEdgeStyle;rounded=0;orthogonalLoop=1;jettySize=auto;html=1;" edge="1" parent="1" source="V_WscMgkgq-Gt-Ru2xho-4" target="V_WscMgkgq-Gt-Ru2xho-14">
          <mxGeometry relative="1" as="geometry" />
        </mxCell>
        <mxCell id="V_WscMgkgq-Gt-Ru2xho-4" value="a &amp;gt; 0" style="rhombus;whiteSpace=wrap;html=1;strokeWidth=2;" vertex="1" parent="1">
          <mxGeometry x="210" y="410" width="80" height="80" as="geometry" />
        </mxCell>
        <mxCell id="V_WscMgkgq-Gt-Ru2xho-9" value="" style="edgeStyle=orthogonalEdgeStyle;rounded=0;orthogonalLoop=1;jettySize=auto;html=1;exitX=0.5;exitY=1;exitDx=0;exitDy=0;" edge="1" parent="1" source="V_WscMgkgq-Gt-Ru2xho-6">
          <mxGeometry relative="1" as="geometry">
            <mxPoint x="250" y="680" as="sourcePoint" />
            <mxPoint x="510" y="950" as="targetPoint" />
          </mxGeometry>
        </mxCell>
        <mxCell id="V_WscMgkgq-Gt-Ru2xho-6" value="b=1;" style="whiteSpace=wrap;html=1;strokeWidth=2;" vertex="1" parent="1">
          <mxGeometry x="190" y="555" width="120" height="60" as="geometry" />
        </mxCell>
        <mxCell id="V_WscMgkgq-Gt-Ru2xho-17" value="" style="edgeStyle=orthogonalEdgeStyle;rounded=0;orthogonalLoop=1;jettySize=auto;html=1;" edge="1" parent="1" source="V_WscMgkgq-Gt-Ru2xho-14" target="V_WscMgkgq-Gt-Ru2xho-16">
          <mxGeometry relative="1" as="geometry" />
        </mxCell>
        <mxCell id="V_WscMgkgq-Gt-Ru2xho-19" value="" style="edgeStyle=orthogonalEdgeStyle;rounded=0;orthogonalLoop=1;jettySize=auto;html=1;" edge="1" parent="1" source="V_WscMgkgq-Gt-Ru2xho-14">
          <mxGeometry relative="1" as="geometry">
            <mxPoint x="690" y="640" as="targetPoint" />
          </mxGeometry>
        </mxCell>
        <mxCell id="V_WscMgkgq-Gt-Ru2xho-14" value="a==0" style="rhombus;whiteSpace=wrap;html=1;strokeWidth=2;" vertex="1" parent="1">
          <mxGeometry x="470" y="500" width="80" height="80" as="geometry" />
        </mxCell>
        <mxCell id="V_WscMgkgq-Gt-Ru2xho-22" value="" style="edgeStyle=orthogonalEdgeStyle;rounded=0;orthogonalLoop=1;jettySize=auto;html=1;" edge="1" parent="1" source="V_WscMgkgq-Gt-Ru2xho-16">
          <mxGeometry relative="1" as="geometry">
            <mxPoint x="510" y="950" as="targetPoint" />
          </mxGeometry>
        </mxCell>
        <mxCell id="V_WscMgkgq-Gt-Ru2xho-16" value="b=2;" style="whiteSpace=wrap;html=1;strokeWidth=2;" vertex="1" parent="1">
          <mxGeometry x="450" y="650" width="120" height="60" as="geometry" />
        </mxCell>
        <mxCell id="V_WscMgkgq-Gt-Ru2xho-24" value="" style="edgeStyle=orthogonalEdgeStyle;rounded=0;orthogonalLoop=1;jettySize=auto;html=1;" edge="1" parent="1" source="V_WscMgkgq-Gt-Ru2xho-20">
          <mxGeometry relative="1" as="geometry">
            <mxPoint x="510" y="950" as="targetPoint" />
            <Array as="points">
              <mxPoint x="690" y="780" />
              <mxPoint x="510" y="780" />
            </Array>
          </mxGeometry>
        </mxCell>
        <mxCell id="V_WscMgkgq-Gt-Ru2xho-20" value="b=3;" style="rounded=0;whiteSpace=wrap;html=1;" vertex="1" parent="1">
          <mxGeometry x="630" y="640" width="120" height="60" as="geometry" />
        </mxCell>
        <mxCell id="V_WscMgkgq-Gt-Ru2xho-27" value="" style="edgeStyle=orthogonalEdgeStyle;rounded=0;orthogonalLoop=1;jettySize=auto;html=1;" edge="1" parent="1" source="V_WscMgkgq-Gt-Ru2xho-25">
          <mxGeometry relative="1" as="geometry">
            <mxPoint x="510" y="1080" as="targetPoint" />
          </mxGeometry>
        </mxCell>
        <mxCell id="V_WscMgkgq-Gt-Ru2xho-25" value="&quot;b : %d\n&quot;, b" style="strokeWidth=2;html=1;shape=mxgraph.flowchart.display;whiteSpace=wrap;" vertex="1" parent="1">
          <mxGeometry x="460" y="950" width="100" height="60" as="geometry" />
        </mxCell>
        <mxCell id="V_WscMgkgq-Gt-Ru2xho-28" value="END" style="rounded=1;whiteSpace=wrap;html=1;" vertex="1" parent="1">
          <mxGeometry x="450" y="1080" width="120" height="60" as="geometry" />
        </mxCell>
      </root>
    </mxGraphModel>
  </diagram>
</mxfile>
